<svg width="96" height="96" viewBox="0 0 96 96" fill="none" xmlns="http://www.w3.org/2000/svg">
<mask id="mask0_49814_1669" style="mask-type:alpha" maskUnits="userSpaceOnUse" x="0" y="0" width="96" height="96">
<circle cx="48" cy="48" r="48" fill="#FFEADF"/>
</mask>
<g mask="url(#mask0_49814_1669)">
<path d="M19.8069 70.7563L16.7801 95.9999H-1.92871L-1.30852 91.814C-1.08277 89.0604 -0.393237 86.4165 0.691367 83.9516C2.53 79.8418 5.56741 76.497 9.29596 74.2011V74.1946C9.48688 74.0727 9.6791 73.9689 9.87003 73.8525C12.8668 72.1254 16.2583 71.0466 19.8069 70.7563Z" fill="#186BE7"/>
<path d="M96.8254 96H78.0637L74.8398 69.0693C76.9691 69.2438 79.0496 69.7018 81.015 70.42C86.6918 72.4725 91.463 76.6358 93.9563 82.2761C95.041 84.7234 95.7247 87.3731 95.9562 90.1273L96.8254 96Z" fill="#186BE7"/>
<path d="M84.2608 72.114L81.0621 96.0001H12.1603L9.29639 74.2009V74.1945C9.48731 74.0726 9.67953 73.9687 9.87046 73.8523C14.1934 71.3032 24.0074 68.3706 31.0181 66.4681C35.9645 65.1268 41.0669 64.4617 46.1936 64.485L51.6446 64.5108C55.4506 64.5279 59.2427 64.9268 62.9703 65.6995C69.0022 66.9483 77.9519 68.953 81.0138 70.4201C82.1864 70.9703 83.2701 71.5396 84.2608 72.114Z" fill="#0D6EFD"/>
<path d="M63.3839 41.2081C63.3839 41.2081 64.9291 45.4449 58.0203 47.9069L58.5008 82.5346L38.0068 73.3485L39.8255 53.3319L47.688 49.9529L49.5627 46.5663C49.5627 46.5663 52.2844 43.0548 52.6134 42.709C52.9417 42.363 55.8536 39.8013 55.8536 39.8013L62.1116 41.6896L63.3839 41.2081Z" fill="#FAB9C9"/>
<path d="M54.4914 51.4601C55.7769 46.366 52.4554 46.5553 48.7284 48.0769L47.6903 49.9523L40.3948 53.0875L39.622 55.803L38.9009 64.4715C38.9006 64.4715 51.8648 61.872 54.4914 51.4601Z" fill="#1B1E28"/>
<path d="M34.1494 38.3846C34.1494 38.3846 28.4639 35.8077 30.4608 29.9619C32.4575 24.116 32.5072 24.1163 32.0927 21.3608C31.6777 18.6056 32.7374 11.7464 40.7851 13.6683C48.8333 15.5905 49.9231 15.7981 54.0306 14.0827C58.1381 12.3673 63.8049 16.1103 62.9209 25.2074C62.1701 32.9396 60.5311 30.801 62.0888 34.9421C63.6472 39.0828 62.7306 40.1177 59.9999 40.7705C53.6732 42.2824 50.6004 39.2676 50.6004 39.1254C50.6004 38.9831 49.3526 35.8122 48.5727 35.3965C47.7929 34.9804 40.6706 33.0054 40.5151 33.2131C40.359 33.4208 38.0082 36.6827 38.0082 36.6827L34.1494 38.3846Z" fill="#1B1E28"/>
<path d="M30.9012 39.2426C33.2119 39.3684 35.5553 39.2552 37.8703 39.2339C38.0512 39.2323 38.0519 38.9504 37.8703 38.9521C35.5553 38.9704 33.2103 38.8959 30.9012 39.0611C30.7847 39.0688 30.7838 39.2372 30.9012 39.2426Z" fill="#1B1E28"/>
<path d="M34.1623 30.4049V48.26C34.1623 48.26 33.6044 56.7382 39.9688 57.0781C46.3332 57.4181 50.1708 57.1026 52.2361 54.8431C54.3009 52.5839 56.2443 48.5513 54.7859 37.8384C53.3288 27.1249 51.7988 25.3037 51.7988 25.3037L43.8551 22.8984L36.348 24.2101L34.1623 30.4049Z" fill="#FAB9C9"/>
<path d="M34.1523 49.016C34.1914 51.1004 34.7729 56.8008 39.9688 57.0778C46.3333 57.4177 50.1708 57.1023 52.2362 54.8428C53.7733 53.1609 55.2413 50.4941 55.2913 44.8224C55.282 42.9786 55.1288 40.8333 54.7863 38.3141C54.5866 36.8428 54.4089 35.5067 54.2503 34.2876C52.9773 26.7073 51.7992 25.3037 51.7992 25.3037L43.8554 22.8984L36.3483 24.2101L34.2633 30.1191L34.1623 30.8806V31.0625C34.1623 31.0625 34.5448 30.0788 36.1303 30.1336C37.7158 30.1881 37.5513 29.4409 39.4096 27.382C41.2685 25.3237 42.1793 27.9286 43.6477 29.1493C45.1161 30.37 47.1895 28.7485 49.5942 28.6756C51.9998 28.6024 51.5254 31.4814 51.0706 32.2651C50.6146 33.0485 50.1956 34.1599 51.654 34.6885C53.1111 35.2164 53.6207 35.4531 53.8039 39.024C53.9855 42.5951 53.0202 45.1281 51.1796 46.3298C49.3397 47.5328 45.4589 47.2593 42.7621 45.2007C40.0656 43.1418 37.1407 45.1191 35.7297 45.729C34.9844 46.0505 34.2614 45.6338 34.1627 45.5729V48.2594V48.7351C34.1623 48.7357 34.1559 48.8393 34.1523 49.016Z" fill="#E5A0B1"/>
<path d="M39.66 35.0295C39.371 37.3219 39.0269 39.9103 39.3307 42.205C39.4423 43.048 39.9399 43.7002 41.078 43.4628C41.3689 43.4018 41.2451 43.0539 40.9545 43.1013C39.1662 43.3938 39.7815 39.6868 39.7986 39.036C39.8351 37.7005 39.8996 36.3656 39.8851 35.0295C39.8835 34.9105 39.6738 34.915 39.66 35.0295Z" fill="#EAAABA"/>
<path d="M43.3919 41.0484C43.9057 41.0484 44.3223 40.6318 44.3223 40.1179C44.3223 39.6041 43.9057 39.1875 43.3919 39.1875C42.878 39.1875 42.4614 39.6041 42.4614 40.1179C42.4614 40.6318 42.878 41.0484 43.3919 41.0484Z" fill="#1B1E28"/>
<path d="M36.3274 41.0484C36.8413 41.0484 37.2579 40.6318 37.2579 40.1179C37.2579 39.6041 36.8413 39.1875 36.3274 39.1875C35.8135 39.1875 35.397 39.6041 35.397 40.1179C35.397 40.6318 35.8135 41.0484 36.3274 41.0484Z" fill="#1B1E28"/>
<path d="M34.6136 36.8766C35.1596 36.657 35.6121 36.3483 36.2161 36.2745C36.8837 36.1909 37.4188 36.3848 38.0367 36.5944C38.2931 36.6808 38.3937 36.3277 38.208 36.189C37.2198 35.4514 35.1612 35.5711 34.4381 36.6479C34.3659 36.7544 34.4875 36.9279 34.6136 36.8766Z" fill="#1B1E28"/>
<path d="M42.5812 36.5876C43.1543 36.3654 43.6062 36.1174 44.248 36.1467C44.8897 36.1767 45.4125 36.4418 46.004 36.6512C46.2617 36.7428 46.3575 36.3854 46.1746 36.2458C45.2406 35.5324 43.165 35.2479 42.4051 36.359C42.3309 36.4657 42.4551 36.6363 42.5812 36.5876Z" fill="#1B1E28"/>
<path d="M48.1854 41.8955C48.5153 42.707 47.8887 43.7277 46.7851 44.1763C45.6814 44.6256 44.5201 44.3311 44.1905 43.52C43.8605 42.7102 44.4878 41.6891 45.5915 41.2399C46.6944 40.7922 47.8564 41.085 48.1854 41.8955Z" fill="#EAAABA"/>
<path d="M35.6397 41.4186C35.1356 41.1925 34.6147 41.1238 34.1606 41.1912V44.296C34.211 44.3225 34.2619 44.3483 34.3151 44.3722C35.4242 44.8698 36.6211 44.6127 36.9865 43.7965C37.3522 42.9818 36.7488 41.9175 35.6397 41.4186Z" fill="#EAAABA"/>
<path d="M38.9072 38.574C39.0988 40.5619 38.0083 42.4896 36.0007 43.0188C33.7373 43.6154 31.4349 42.0606 31.0853 39.774C30.7577 37.6242 32.2483 35.6107 34.3949 35.2821C36.6209 34.9428 38.4711 36.4692 38.9107 38.6033C38.9398 38.7417 39.15 38.6826 39.121 38.5456C38.663 36.3215 36.6838 34.6771 34.3475 35.046C32.0951 35.4021 30.5164 37.549 30.847 39.8053C31.1769 42.0574 33.3503 43.6516 35.594 43.3223C37.9335 42.9795 39.3439 40.8415 39.1258 38.5733C39.1123 38.4356 38.894 38.4346 38.9072 38.574Z" fill="#1B1E28"/>
<path d="M48.9323 39.2801C48.8165 41.4293 47.2046 43.2473 44.965 43.2473C42.8145 43.2473 40.9972 41.4293 40.9972 39.2801C40.9972 37.2776 42.5656 35.5628 44.5409 35.3571C46.9362 35.1091 48.8071 36.9416 48.9323 39.2801C48.9397 39.4198 49.1583 39.4207 49.1509 39.2801C49.028 37.0061 47.3387 35.0942 44.965 35.0942C42.6936 35.0942 40.7679 37.0009 40.7789 39.2801C40.7895 41.4783 42.544 43.3379 44.7428 43.4531C47.202 43.5824 49.0235 41.6412 49.1509 39.2801C49.1587 39.1392 48.94 39.1392 48.9323 39.2801Z" fill="#1B1E28"/>
<path d="M38.9371 39.0394C39.5373 39.1459 40.2575 39.1514 40.8615 39.0665C40.946 39.0549 40.946 38.9088 40.8615 38.8969C40.2575 38.8134 39.5386 38.8179 38.9371 38.9243C38.879 38.934 38.879 39.0288 38.9371 39.0394Z" fill="#1B1E28"/>
<path d="M48.8649 39.1132C51.176 39.2386 53.5194 39.1254 55.834 39.1045C56.015 39.1028 56.0156 38.8206 55.834 38.8219C53.5191 38.8406 51.1741 38.7661 48.8649 38.9309C48.7485 38.9393 48.7478 39.1067 48.8649 39.1132Z" fill="#1B1E28"/>
<path d="M63.3696 41.2078C61.6419 36.8043 55.024 39.801 55.024 39.801L54.4868 44.1082L57.7482 42.8629C57.8653 43.1551 60.9059 43.2135 60.9059 43.2135L63.3696 41.2078Z" fill="#FAB9C9"/>
<path d="M57.5929 40.0121C59.407 39.7345 61.1589 41.3238 60.9528 43.1776C60.9212 43.4691 60.4603 43.4724 60.4916 43.1776C60.6609 41.6537 59.2619 40.2198 57.7151 40.4562C57.4248 40.5011 57.3 40.0573 57.5929 40.0121Z" fill="#E6A0B1"/>
<path d="M60.1038 41.3653C59.3436 41.6974 58.7747 42.3109 58.5264 43.1062C58.4393 43.3893 57.9942 43.2684 58.0829 42.9839C58.3625 42.0828 59.0034 41.3462 59.8712 40.9673C60.1412 40.8499 60.376 41.2466 60.1038 41.3653Z" fill="#E6A0B1"/>
<path d="M36.8137 15.4449C34.1523 17.2439 33.6076 20.6647 34.8363 23.5051C34.876 23.5973 35.0102 23.5174 34.9712 23.4264C33.7782 20.6702 34.3029 17.3297 36.8924 15.5794C36.9756 15.5233 36.8969 15.3878 36.8137 15.4449Z" fill="white"/>
<path d="M32.1832 34.6557C32.4061 35.1056 32.6102 35.5603 32.885 35.9815C32.9398 36.0654 33.0753 35.9873 33.0198 35.9028C32.7444 35.4813 32.5405 35.0265 32.318 34.5773C32.2735 34.4873 32.1387 34.5663 32.1832 34.6557Z" fill="white"/>
<path d="M51.8765 29.6783C51.8765 29.8518 51.8765 30.0246 51.8765 30.1981C51.8765 30.2984 52.0326 30.2984 52.0326 30.1981C52.0326 30.0246 52.0326 29.8518 52.0326 29.6783C52.0326 29.578 51.8765 29.578 51.8765 29.6783Z" fill="white"/>
<path d="M51.676 31.9263C51.6289 31.9902 51.6192 32.0705 51.5721 32.1343C51.5121 32.2153 51.6476 32.2927 51.7069 32.213C51.7547 32.1492 51.7643 32.0688 51.8108 32.005C51.8704 31.924 51.735 31.846 51.676 31.9263Z" fill="white"/>
<path d="M60.7088 31.6017C60.525 33.3533 60.5601 34.7552 61.2316 36.4049C61.2693 36.4968 61.42 36.4571 61.3822 36.3639C60.722 34.7414 60.6843 33.3184 60.8649 31.6017C60.8759 31.5014 60.7191 31.5024 60.7088 31.6017Z" fill="white"/>
<path d="M39.9686 57.0779C46.333 57.4178 50.1706 57.1024 52.2359 54.8429C54.3007 52.5837 56.2441 48.551 54.7857 37.8382C53.3286 27.1247 53.0309 23.3097 53.0309 23.3097L47.4941 20.3071L35.3993 21.0483L34.1621 30.4043V30.5862C34.1621 30.5862 34.5446 29.6029 36.1301 29.657C37.7155 29.7119 37.5511 28.9646 39.4094 26.906C41.2683 24.8478 42.1791 27.4527 43.6475 28.6734C45.1159 29.8938 47.1893 28.2725 49.5939 28.1996C51.9995 28.1264 51.5251 31.0051 51.0704 31.7888C50.6144 32.5725 50.1954 33.6836 51.6538 34.2122C53.1109 34.7405 53.6205 34.9769 53.8037 38.5477C53.9852 42.1189 53.02 44.6519 51.1794 45.8539C49.3395 47.0565 45.4587 46.7833 42.7619 44.7244C40.0654 42.6658 37.1405 44.6432 35.7295 45.253C34.9842 45.5742 34.2611 45.1576 34.1624 45.0969V48.2595C34.1621 48.2598 33.6042 56.7379 39.9686 57.0779Z" fill="#1B1E28"/>
<path d="M33.4169 25.1037C33.4736 26.7407 32.4751 28.0698 31.8575 29.5179C31.4208 30.5412 31.3586 31.6506 31.3896 32.7452C31.3921 32.8455 31.5482 32.8462 31.5453 32.7452C31.4983 31.0798 31.8788 29.7788 32.6058 28.2943C33.1298 27.2248 33.6149 26.3224 33.5726 25.1037C33.5694 25.0034 33.4133 25.003 33.4169 25.1037Z" fill="white"/>
<path d="M51.8295 17.5889C53.6668 17.8698 55.5448 17.4818 57.3544 17.9956C60.8743 18.9937 60.0541 24.22 58.9569 26.6759C58.916 26.7669 59.0508 26.8459 59.0911 26.7543C60.187 24.3022 60.6288 21.1187 58.9153 18.8334C57.406 16.821 53.9674 17.7588 51.8711 17.4386C51.773 17.4234 51.7301 17.5737 51.8295 17.5889Z" fill="white"/>
<path d="M42.9322 25.8312C43.0896 30.5373 48.9892 25.3091 51.0133 27.6541C51.0788 27.7299 51.1891 27.6196 51.1236 27.5435C49.0563 25.1478 43.236 30.2487 43.0886 25.8309C43.0854 25.7309 42.9293 25.7306 42.9322 25.8312Z" fill="white"/>
<path d="M39.7366 57.1913C42.3483 57.2084 45.0006 57.5251 47.6004 57.1445C50.3998 56.7346 52.3039 55.6461 53.762 53.2144C53.8136 53.128 53.6788 53.0499 53.6271 53.136C52.0272 55.8029 49.8047 56.7865 46.777 57.0778C44.4375 57.3026 42.0787 57.0503 39.7366 57.0352C39.6366 57.0345 39.6366 57.1906 39.7366 57.1913Z" fill="white"/>
<path d="M39.362 47.0696C40.017 48.5309 42.7219 47.9427 42.7245 46.3469C42.7245 46.1766 42.4907 46.1134 42.4046 46.2605C42.0998 46.78 41.9001 47.2683 41.2493 47.436C40.5679 47.6121 40.0702 47.2515 39.5468 46.8842C39.4236 46.7981 39.313 46.96 39.362 47.0696Z" fill="white"/>
<path d="M38.5415 68.7212C44.2112 75.3607 50.3957 74.4945 56.9166 68.7212L56.9172 95.9996H38.5418V68.7212H38.5415Z" fill="#E3EEF1"/>
<path d="M39.0388 61.8306L26.1538 66.2528C32.0899 76.4387 35.2309 86.3246 35.2038 95.8722H40.9629C43.9135 85.5709 42.9044 74.1169 39.0388 61.8306Z" fill="#186BE7"/>
<path d="M58.068 61.8306L70.9532 66.2528C65.0165 76.4387 61.8758 86.3246 61.9026 95.8722H56.1435C53.1938 85.5709 54.2027 74.1169 58.068 61.8306Z" fill="#186BE7"/>
</g>
</svg>
