<svg width="16" height="16" viewBox="0 0 16 16" fill="none" xmlns="http://www.w3.org/2000/svg">
<path d="M11.9997 3.1665H3.99967C2.80306 3.1665 1.83301 4.13655 1.83301 5.33317V11.9998C1.83301 13.1965 2.80306 14.1665 3.99967 14.1665H11.9997C13.1963 14.1665 14.1663 13.1965 14.1663 11.9998V5.33317C14.1663 4.13655 13.1963 3.1665 11.9997 3.1665Z" stroke="#7D848D" stroke-width="1.1"/>
<path d="M4.5 1.8335V4.16683" stroke="#7D848D" stroke-width="1.1" stroke-linecap="round"/>
<path d="M2.5 6.1665H13.5" stroke="#7D848D" stroke-width="1.1" stroke-linecap="round"/>
<path d="M11.833 1.8335V4.16683" stroke="#7D848D" stroke-width="1.1" stroke-linecap="round"/>
<path d="M5.5 9.3335C5.77614 9.3335 6 9.10964 6 8.8335C6 8.55735 5.77614 8.3335 5.5 8.3335C5.22386 8.3335 5 8.55735 5 8.8335C5 9.10964 5.22386 9.3335 5.5 9.3335Z" fill="#7D848D"/>
<path d="M8.16699 9.3335C8.44313 9.3335 8.66699 9.10964 8.66699 8.8335C8.66699 8.55735 8.44313 8.3335 8.16699 8.3335C7.89085 8.3335 7.66699 8.55735 7.66699 8.8335C7.66699 9.10964 7.89085 9.3335 8.16699 9.3335Z" fill="#7D848D"/>
<path d="M10.833 9.3335C11.1092 9.3335 11.333 9.10964 11.333 8.8335C11.333 8.55735 11.1092 8.3335 10.833 8.3335C10.5569 8.3335 10.333 8.55735 10.333 8.8335C10.333 9.10964 10.5569 9.3335 10.833 9.3335Z" fill="#7D848D"/>
<path d="M5.5 12C5.77614 12 6 11.7761 6 11.5C6 11.2239 5.77614 11 5.5 11C5.22386 11 5 11.2239 5 11.5C5 11.7761 5.22386 12 5.5 12Z" fill="#7D848D"/>
<path d="M8.16699 12C8.44313 12 8.66699 11.7761 8.66699 11.5C8.66699 11.2239 8.44313 11 8.16699 11C7.89085 11 7.66699 11.2239 7.66699 11.5C7.66699 11.7761 7.89085 12 8.16699 12Z" fill="#7D848D"/>
<path d="M10.833 12C11.1092 12 11.333 11.7761 11.333 11.5C11.333 11.2239 11.1092 11 10.833 11C10.5569 11 10.333 11.2239 10.333 11.5C10.333 11.7761 10.5569 12 10.833 12Z" fill="#7D848D"/>
</svg>
