<svg width="24" height="24" viewBox="0 0 24 24" fill="none" xmlns="http://www.w3.org/2000/svg">
<path fill-rule="evenodd" clip-rule="evenodd" d="M9.06703 13.5701L7.22803 11.1251L8.57803 10.6721C8.82303 10.5901 9.09203 10.6281 9.30403 10.7751L10.476 11.5841L13.295 10.3431L10.35 6.61205L12.748 6.10205L16.621 9.13505L20.751 7.48905C21.762 7.08605 22.878 7.76005 22.991 8.84205V8.84205C23.067 9.56005 22.664 10.2441 21.998 10.5261L14.595 13.6601C14.405 13.7401 14.203 13.7841 13.997 13.7891L9.74303 13.8951C9.47803 13.9041 9.22603 13.7821 9.06703 13.5701Z" stroke="#7D848D" stroke-width="1.4" stroke-linecap="round" stroke-linejoin="round"/>
<path d="M20.035 7.80021C18.59 4.96121 15.648 3.01221 12.245 3.01221C7.415 3.01221 3.5 6.92921 3.5 11.7622C3.5 16.5942 7.415 20.5122 12.245 20.5122C17.075 20.5122 20.99 16.5952 20.99 11.7622C20.99 11.5012 20.973 11.2452 20.951 10.9902" stroke="#7D848D" stroke-width="1.4" stroke-linecap="round" stroke-linejoin="round"/>
<path d="M3.52015 12.3491C1.65615 13.7161 0.647147 15.2331 1.09715 16.2931C1.73515 17.8731 5.33515 17.9081 9.13815 16.3711" stroke="#7D848D" stroke-width="1.4" stroke-linecap="round" stroke-linejoin="round"/>
</svg>
