<svg width="37" height="32" viewBox="0 0 37 32" fill="none" xmlns="http://www.w3.org/2000/svg">
<path d="M7.63411 22.271L6.46755 32.0003H-0.743164L-0.504133 30.387C-0.417123 29.3257 -0.151366 28.3067 0.266658 27.3567C0.975299 25.7727 2.14597 24.4836 3.58301 23.5987V23.5962C3.6566 23.5492 3.73068 23.5092 3.80427 23.4643C4.95927 22.7987 6.26643 22.3829 7.63411 22.271Z" fill="#186BE7"/>
<path d="M37.3183 32.0001H30.0872L28.8447 21.6206C29.6654 21.6879 30.4672 21.8644 31.2247 22.1412C33.4127 22.9322 35.2516 24.5368 36.2126 26.7107C36.6306 27.6539 36.8941 28.6752 36.9833 29.7367L37.3183 32.0001Z" fill="#186BE7"/>
<path d="M32.4756 22.7941L31.2427 32.0002H4.6868L3.58301 23.5984V23.596C3.65659 23.549 3.73068 23.5089 3.80426 23.4641C5.4704 22.4816 9.25288 21.3513 11.9549 20.6181C13.8613 20.1011 15.8279 19.8448 17.8038 19.8537L19.9047 19.8637C21.3716 19.8703 22.8332 20.024 24.2698 20.3219C26.5946 20.8032 30.044 21.5758 31.2241 22.1413C31.6761 22.3533 32.0937 22.5727 32.4756 22.7941Z" fill="#0D6EFD"/>
<path d="M24.4292 10.8825C24.4292 10.8825 25.0247 12.5155 22.3619 13.4644L22.5472 26.8105L14.6484 23.27L15.3494 15.5553L18.3797 14.253L19.1023 12.9477C19.1023 12.9477 20.1513 11.5943 20.278 11.461C20.4046 11.3277 21.5269 10.3403 21.5269 10.3403L23.9388 11.0681L24.4292 10.8825Z" fill="#FAB9C9"/>
<path d="M21.002 14.8339C21.4975 12.8705 20.2173 12.9435 18.7809 13.5299L18.3807 14.2527L15.5689 15.4611L15.2711 16.5077L14.9932 19.8487C14.993 19.8487 19.9897 18.8468 21.002 14.8339Z" fill="#1B1E28"/>
<path d="M13.1617 9.79426C13.1617 9.79426 10.9704 8.80109 11.7401 6.54801C12.5096 4.29493 12.5287 4.29505 12.369 3.23302C12.209 2.17112 12.6175 -0.472517 15.7192 0.268194C18.8211 1.00903 19.2411 1.08908 20.8242 0.42792C22.4073 -0.233238 24.5914 1.2094 24.2507 4.71556C23.9613 7.69568 23.3296 6.87144 23.93 8.46747C24.5306 10.0634 24.1774 10.4623 23.1249 10.7138C20.6865 11.2966 19.5022 10.1346 19.5022 10.0798C19.5022 10.025 19.0212 8.80283 18.7207 8.64261C18.4201 8.48226 15.6751 7.72104 15.6151 7.80109C15.555 7.88114 14.6489 9.13832 14.6489 9.13832L13.1617 9.79426Z" fill="#1B1E28"/>
<path d="M11.9098 10.1247C12.8004 10.1732 13.7036 10.1296 14.5958 10.1214C14.6655 10.1208 14.6658 10.0121 14.5958 10.0127C13.7036 10.0198 12.7998 9.99111 11.9098 10.0547C11.8649 10.0577 11.8645 10.1226 11.9098 10.1247Z" fill="#1B1E28"/>
<path d="M13.1669 6.71879V13.6005C13.1669 13.6005 12.9519 16.8681 15.4048 16.9991C17.8578 17.1301 19.3368 17.0086 20.1329 16.1377C20.9286 15.267 21.6777 13.7127 21.1156 9.58381C20.554 5.45465 19.9643 4.75272 19.9643 4.75272L16.9026 3.82568L14.0093 4.33122L13.1669 6.71879Z" fill="#FAB9C9"/>
<path d="M13.1631 13.8918C13.1781 14.6952 13.4022 16.8922 15.4049 16.999C17.8578 17.13 19.3369 17.0084 20.1329 16.1376C20.7253 15.4894 21.2911 14.4615 21.3104 12.2755C21.3068 11.5649 21.2478 10.7381 21.1157 9.76715C21.0388 9.20009 20.9703 8.68511 20.9092 8.21525C20.4185 5.29368 19.9645 4.75272 19.9645 4.75272L16.9028 3.82568L14.0095 4.33122L13.2058 6.60866L13.1669 6.90214V6.97224C13.1669 6.97224 13.3144 6.59312 13.9254 6.61425C14.5365 6.63526 14.4731 6.34726 15.1893 5.55372C15.9058 4.76043 16.2568 5.76441 16.8228 6.23489C17.3887 6.70537 18.1878 6.08038 19.1146 6.05229C20.0418 6.02407 19.8589 7.13371 19.6837 7.43576C19.5079 7.73769 19.3464 8.16603 19.9085 8.36976C20.4701 8.57324 20.6665 8.66448 20.7371 10.0407C20.8071 11.4171 20.4351 12.3934 19.7257 12.8565C19.0165 13.3202 17.5208 13.2148 16.4814 12.4214C15.4421 11.6278 14.3149 12.3899 13.771 12.625C13.4838 12.7489 13.2051 12.5883 13.1671 12.5648V13.6002V13.7836C13.1669 13.7838 13.1645 13.8237 13.1631 13.8918Z" fill="#E5A0B1"/>
<path d="M15.2858 8.50104C15.1744 9.38457 15.0418 10.3822 15.1589 11.2666C15.2019 11.5915 15.3937 11.8429 15.8323 11.7514C15.9444 11.7279 15.8967 11.5938 15.7847 11.612C15.0955 11.7248 15.3326 10.2961 15.3392 10.0452C15.3533 9.5305 15.3781 9.01602 15.3725 8.50104C15.3719 8.45517 15.2911 8.45691 15.2858 8.50104Z" fill="#EAAABA"/>
<path d="M16.7238 10.8212C16.9219 10.8212 17.0825 10.6607 17.0825 10.4626C17.0825 10.2646 16.9219 10.104 16.7238 10.104C16.5258 10.104 16.3652 10.2646 16.3652 10.4626C16.3652 10.6607 16.5258 10.8212 16.7238 10.8212Z" fill="#1B1E28"/>
<path d="M14.0012 10.8212C14.1992 10.8212 14.3598 10.6607 14.3598 10.4626C14.3598 10.2646 14.1992 10.104 14.0012 10.104C13.8031 10.104 13.6426 10.2646 13.6426 10.4626C13.6426 10.6607 13.8031 10.8212 14.0012 10.8212Z" fill="#1B1E28"/>
<path d="M13.3406 9.21308C13.551 9.12843 13.7254 9.00947 13.9583 8.98101C14.2156 8.94881 14.4218 9.02352 14.6599 9.10431C14.7588 9.13763 14.7975 9.00152 14.7259 8.94807C14.3451 8.66379 13.5517 8.70991 13.273 9.12495C13.2451 9.16597 13.292 9.23284 13.3406 9.21308Z" fill="#1B1E28"/>
<path d="M16.4114 9.10175C16.6323 9.01611 16.8065 8.92052 17.0538 8.93183C17.3012 8.94339 17.5027 9.04557 17.7306 9.12624C17.83 9.16154 17.8669 9.02381 17.7964 8.96999C17.4364 8.69504 16.6364 8.5854 16.3436 9.01362C16.315 9.05476 16.3628 9.12052 16.4114 9.10175Z" fill="#1B1E28"/>
<path d="M18.5717 11.1474C18.6988 11.4602 18.4573 11.8536 18.0319 12.0265C17.6066 12.1997 17.159 12.0862 17.0319 11.7735C16.9048 11.4614 17.1465 11.0679 17.5719 10.8947C17.997 10.7222 18.4449 10.8351 18.5717 11.1474Z" fill="#EAAABA"/>
<path d="M13.7361 10.9634C13.5418 10.8762 13.341 10.8498 13.166 10.8757V12.0724C13.1854 12.0826 13.205 12.0925 13.2256 12.1017C13.653 12.2935 14.1143 12.1945 14.2551 11.8798C14.3961 11.5659 14.1635 11.1557 13.7361 10.9634Z" fill="#EAAABA"/>
<path d="M14.9955 9.86702C15.0693 10.6332 14.649 11.3762 13.8753 11.5801C13.0029 11.8101 12.1155 11.2108 11.9808 10.3296C11.8545 9.50096 12.429 8.72495 13.2564 8.59828C14.1143 8.46752 14.8274 9.05584 14.9968 9.87834C15.008 9.93166 15.0891 9.90891 15.0779 9.85609C14.9014 8.99891 14.1385 8.36509 13.2381 8.5073C12.37 8.64452 11.7615 9.472 11.8889 10.3416C12.0161 11.2096 12.8538 11.824 13.7185 11.6971C14.6202 11.565 15.1638 10.741 15.0797 9.86678C15.0745 9.8137 14.9904 9.81333 14.9955 9.86702Z" fill="#1B1E28"/>
<path d="M18.8593 10.1392C18.8146 10.9675 18.1934 11.6682 17.3302 11.6682C16.5014 11.6682 15.801 10.9675 15.801 10.1392C15.801 9.3674 16.4054 8.70649 17.1668 8.62718C18.09 8.5316 18.811 9.23788 18.8593 10.1392C18.8621 10.193 18.9464 10.1934 18.9435 10.1392C18.8962 9.26274 18.2451 8.52588 17.3302 8.52588C16.4548 8.52588 15.7126 9.26075 15.7168 10.1392C15.7209 10.9864 16.3971 11.7031 17.2446 11.7475C18.1924 11.7974 18.8944 11.0492 18.9435 10.1392C18.9465 10.0849 18.8623 10.0849 18.8593 10.1392Z" fill="#1B1E28"/>
<path d="M15.007 10.0465C15.2383 10.0876 15.5159 10.0897 15.7487 10.057C15.7813 10.0525 15.7813 9.9962 15.7487 9.9916C15.5159 9.95941 15.2388 9.96115 15.007 10.0022C14.9846 10.0059 14.9846 10.0424 15.007 10.0465Z" fill="#1B1E28"/>
<path d="M18.8336 10.0751C19.7243 10.1234 20.6275 10.0798 21.5196 10.0717C21.5893 10.0711 21.5896 9.96234 21.5196 9.96284C20.6273 9.97005 19.7235 9.94134 18.8336 10.0049C18.7887 10.0081 18.7884 10.0726 18.8336 10.0751Z" fill="#1B1E28"/>
<path d="M24.4236 10.8826C23.7577 9.18536 21.207 10.3404 21.207 10.3404L21 12.0004L22.257 11.5205C22.3021 11.6331 23.474 11.6556 23.474 11.6556L24.4236 10.8826Z" fill="#FAB9C9"/>
<path d="M22.1972 10.4214C22.8964 10.3144 23.5716 10.9269 23.4922 11.6414C23.48 11.7538 23.3024 11.755 23.3144 11.6414C23.3797 11.0541 22.8405 10.5014 22.2443 10.5925C22.1324 10.6098 22.0843 10.4388 22.1972 10.4214Z" fill="#E6A0B1"/>
<path d="M23.1652 10.9429C22.8722 11.0709 22.6529 11.3074 22.5572 11.6139C22.5237 11.723 22.3521 11.6764 22.3863 11.5668C22.4941 11.2195 22.7411 10.9356 23.0756 10.7895C23.1796 10.7443 23.2701 10.8972 23.1652 10.9429Z" fill="#E6A0B1"/>
<path d="M14.1885 0.953056C13.1628 1.64641 12.9528 2.96487 13.4264 4.05959C13.4417 4.09514 13.4934 4.06431 13.4784 4.02926C13.0186 2.96698 13.2208 1.67947 14.2188 1.00489C14.2509 0.983261 14.2206 0.931055 14.1885 0.953056Z" fill="white"/>
<path d="M12.4038 8.35702C12.4897 8.53043 12.5684 8.70569 12.6743 8.86803C12.6954 8.90035 12.7476 8.87026 12.7263 8.8377C12.6201 8.67524 12.5415 8.49997 12.4558 8.32682C12.4386 8.29214 12.3867 8.32259 12.4038 8.35702Z" fill="white"/>
<path d="M19.9941 6.43866C19.9941 6.50554 19.9941 6.57216 19.9941 6.63903C19.9941 6.67769 20.0543 6.67769 20.0543 6.63903C20.0543 6.57216 20.0543 6.50554 20.0543 6.43866C20.0543 6.4 19.9941 6.4 19.9941 6.43866Z" fill="white"/>
<path d="M19.9169 7.30499C19.8987 7.3296 19.895 7.36055 19.8769 7.38516C19.8538 7.41636 19.906 7.4462 19.9288 7.41549C19.9472 7.39088 19.951 7.35993 19.9689 7.33532C19.9919 7.30412 19.9396 7.27404 19.9169 7.30499Z" fill="white"/>
<path d="M23.3981 7.18022C23.3273 7.8553 23.3408 8.39564 23.5996 9.03144C23.6142 9.06686 23.6722 9.05158 23.6577 9.01565C23.4032 8.39029 23.3887 7.84188 23.4583 7.18022C23.4625 7.14156 23.4021 7.14194 23.3981 7.18022Z" fill="white"/>
<path d="M15.4047 16.9992C17.8577 17.1302 19.3368 17.0087 20.1328 16.1378C20.9286 15.2671 21.6776 13.7128 21.1155 9.58391C20.5539 5.45475 20.4392 3.98439 20.4392 3.98439L18.3052 2.82715L13.6436 3.11279L13.1668 6.71877V6.78887C13.1668 6.78887 13.3142 6.40988 13.9253 6.43076C14.5364 6.45189 14.473 6.16389 15.1892 5.37047C15.9057 4.57718 16.2567 5.58116 16.8226 6.05164C17.3886 6.522 18.1877 5.89714 19.1145 5.86905C20.0417 5.84083 19.8588 6.95034 19.6836 7.25239C19.5078 7.55444 19.3463 7.98266 19.9084 8.18639C20.47 8.39 20.6664 8.48111 20.737 9.85737C20.807 11.2338 20.435 12.21 19.7256 12.6733C19.0164 13.1368 17.5207 13.0315 16.4813 12.238C15.442 11.4446 14.3147 12.2067 13.7709 12.4417C13.4837 12.5655 13.205 12.4049 13.1669 12.3816V13.6005C13.1668 13.6006 12.9518 16.8682 15.4047 16.9992Z" fill="#1B1E28"/>
<path d="M12.8797 4.67552C12.9015 5.30648 12.5167 5.81872 12.2787 6.37683C12.1104 6.77124 12.0864 7.19884 12.0983 7.62072C12.0993 7.65937 12.1595 7.65962 12.1583 7.62072C12.1402 6.97882 12.2869 6.47739 12.567 5.90524C12.769 5.49305 12.956 5.14526 12.9397 4.67552C12.9385 4.63687 12.8783 4.63674 12.8797 4.67552Z" fill="white"/>
<path d="M19.9759 1.77953C20.684 1.8878 21.4078 1.73826 22.1053 1.93627C23.4619 2.32099 23.1458 4.33529 22.7229 5.28184C22.7071 5.31689 22.7591 5.34734 22.7746 5.31204C23.197 4.36698 23.3673 3.14001 22.7069 2.25921C22.1252 1.48357 20.7999 1.84504 19.9919 1.7216C19.9541 1.71576 19.9376 1.77369 19.9759 1.77953Z" fill="white"/>
<path d="M16.5469 4.9563C16.6075 6.7701 18.8814 4.75506 19.6615 5.65885C19.6867 5.68806 19.7292 5.64555 19.704 5.61622C18.9072 4.69291 16.664 6.65885 16.6072 4.95618C16.6059 4.91764 16.5458 4.91752 16.5469 4.9563Z" fill="white"/>
<path d="M15.315 17.0427C16.3216 17.0493 17.3439 17.1714 18.3459 17.0247C19.4248 16.8667 20.1587 16.4472 20.7206 15.51C20.7405 15.4766 20.6886 15.4466 20.6687 15.4797C20.052 16.5076 19.1955 16.8867 18.0285 16.999C17.1268 17.0856 16.2177 16.9884 15.315 16.9825C15.2765 16.9823 15.2765 17.0425 15.315 17.0427Z" fill="white"/>
<path d="M15.1706 13.1419C15.4231 13.7051 16.4656 13.4784 16.4666 12.8634C16.4666 12.7977 16.3764 12.7734 16.3433 12.83C16.2258 13.0303 16.1488 13.2185 15.898 13.2831C15.6354 13.351 15.4436 13.212 15.2418 13.0704C15.1943 13.0372 15.1517 13.0996 15.1706 13.1419Z" fill="white"/>
<path d="M14.8545 21.4863C17.0397 24.0453 19.4233 23.7114 21.9366 21.4863L21.9368 31.9999H14.8546V21.4863H14.8545Z" fill="#E3EEF1"/>
<path d="M15.0462 18.8311L10.0801 20.5355C12.368 24.4613 13.5785 28.2715 13.5681 31.9513H15.7877C16.925 27.981 16.536 23.5664 15.0462 18.8311Z" fill="#186BE7"/>
<path d="M22.3804 18.8311L27.3466 20.5355C25.0585 24.4613 23.848 28.2715 23.8584 31.9513H21.6387C20.5019 27.981 20.8907 23.5664 22.3804 18.8311Z" fill="#186BE7"/>
</svg>
