<svg width="24" height="24" viewBox="0 0 24 24" fill="none" xmlns="http://www.w3.org/2000/svg">
<path d="M20 11.5C20 6.805 16.195 3 11.5 3C6.805 3 3 6.805 3 11.5C3 16.195 6.805 20 11.5 20" stroke="#7D848D" stroke-width="1.5" stroke-linecap="round" stroke-linejoin="round"/>
<path d="M19.27 19.27L21 21" stroke="#7D848D" stroke-width="1.5" stroke-linecap="round" stroke-linejoin="round"/>
<path d="M19.2678 15.7322C20.2441 16.7085 20.2441 18.2915 19.2678 19.2678C18.2915 20.2441 16.7085 20.2441 15.7322 19.2678C14.7559 18.2915 14.7559 16.7085 15.7322 15.7322C16.7085 14.7559 18.2915 14.7559 19.2678 15.7322" stroke="#7D848D" stroke-width="1.5" stroke-linecap="round" stroke-linejoin="round"/>
<path d="M3.88721 15.2809H3.94521C6.77821 15.2809 8.66721 15.1189 8.66721 12.4479C8.66721 9.61488 11.5002 9.61488 11.5002 7.72588C11.5002 5.61388 7.72221 5.83688 7.72221 3.94788V3.87988" stroke="#7D848D" stroke-width="1.5" stroke-linecap="round" stroke-linejoin="round"/>
<path d="M19.9999 11.4998H16.9319C14.8269 11.4998 13.7099 9.01283 15.1079 7.43883L17.1389 5.15283" stroke="#7D848D" stroke-width="1.5" stroke-linecap="round" stroke-linejoin="round"/>
</svg>
